#!OML:ASF F:\VICON\USERDATA\INSTALL\rory3\rory3.ASF
:FULLY-SPECIFIED
:DEGREES
55
root 0.6322547611160536 18.0919543065671 27.549901560165665 -2.19222904313671 -0.31105043226397533 -5.26578458669357
lfemur -24.534928501218253 -3.419451726157319 -16.69627032181322
ltibia 26.82904252650977
lfoot -6.909475011300964 -3.5526829191131473
ltoes -7.252090628207009
rfemur 7.348265869757379 5.453680069543243 30.856366787963093
rtibia 22.294208618237974
rfoot 3.824278173635708 -1.4819127185691432
rtoes 6.244782023313757
lowerback 8.762297784759035 2.3789656711247975 6.572546264209456
upperback -0.00988642790502059 3.9235894580871524 1.2969840652375066
thorax -4.512994731656283 1.775259103235593 -2.7749753748981107
lowerneck -16.2145536621898 -3.3662638567063934 -2.0477508084649743
upperneck 21.754795426999422 -4.409748653649983 0.9795667631908359
head 9.684211895498544 -2.0679221806535595 -0.04555001314216983
lclavicle -3.4496889379186876e-15 -8.511995207500578e-16
lhumerus -38.480591406507365 6.495516938793836 82.53007879904085
lradius 23.49466566359534
lwrist 4.677216966282332
lhand -27.271518127047308 25.12948305444459
lfingers 7.1250199999999975
lthumb -0.6823860106032786 55.11268924679037
rclavicle -3.4496889379186876e-15 -8.511995207500578e-16
rhumerus -24.650483399846156 -12.772950321911829 -77.32815628060904
rradius 28.303176402235657
rwrist 4.8850943070125865
rhand -16.768703157145296 21.39961740032949
rfingers 7.1250199999999975
rthumb 9.458227146120727 -6.459842919020431
56
root 0.6501010007344571 18.11761282358442 28.70485966735891 -2.1836231201277396 -0.17795969565396086 -5.213041663758296
lfemur -22.967496470952327 -3.3935950401385386 -17.311622237093953
ltibia 21.681874350197532
lfoot -5.965452556324646 -4.723450731950846
ltoes -7.261944219852094
rfemur 7.864445752310539 6.209742156882617 31.061492561594928
rtibia 23.67352111315596
rfoot 5.700572851677874 -1.7139793321248273
rtoes 8.152960505158005
lowerback 8.597125719852713 2.554596741668752 6.661065654213755
upperback -0.07267595516665665 4.117603042966973 1.1853146958930618
thorax -4.421643771041655 1.875923526130788 -2.916636771382624
lowerneck -16.182236540098113 -3.383049387470075 -2.152123180558504
upperneck 21.958307108108045 -4.437222648473128 1.0961293107219168
head 9.78996576199153 -2.0759124615809266 -0.0007976682119259226
lclavicle -3.2346725928434457e-15 -7.077780445193057e-16
lhumerus -38.874551792186736 7.550139517433339 82.0350814808081
lradius 24.245306215584556
lwrist 4.332941368531059
lhand -27.331956225226264 24.611738961414947
lfingers 7.1250199999999975
lthumb -0.7407674061428855 54.59412905649301
rclavicle -3.2346725928434457e-15 -7.077780445193057e-16
rhumerus -24.77434792719822 -12.420667035481664 -77.505264307899
rradius 28.092853740074176
rwrist 4.897898566207928
rhand -16.7197437934694 21.293802140954554
rfingers 7.1250199999999975
rthumb 9.505559604695197 -6.422723401836383
57
root 0.6537003955722831 18.12577663825427 29.482629948538843 -2.2564252405173577 -0.14447277373397815 -5.331676455859233
lfemur -21.60637183425972 -3.1965287225967693 -17.93184517293515
ltibia 17.363396230300726
lfoot -5.239614291276985 -5.416839027266239
ltoes -7.406929103666256
rfemur 7.63340080113357 6.811909982153225 31.2407200338442
rtibia 25.73932365026436
rfoot 5.9658955157413 -2.5638461291264094
rtoes 9.193247940353212
lowerback 8.531730761772145 2.671599929663034 6.6574089701882375
upperback -0.08771017846527862 4.249164900379117 1.1213117121606841
thorax -4.370941002846636 1.9480782475277132 -3.0071019159772963
lowerneck -16.207436493480003 -3.3893380377235274 -2.262302889065677
upperneck 22.056751551830036 -4.446160010303159 1.19101971299894
head 9.859878420428634 -2.0773629695796236 0.04253131081976774
lclavicle -3.2661661972542267e-15 -7.287839914561732e-16
lhumerus -39.098988634353276 8.24030334965802 81.71191377557265
lradius 25.039580658274634
lwrist 3.87987070962399
lhand -27.154544850943257 23.8604055069277
lfingers 7.1250199999999975
lthumb -0.5694322688658796 53.83489782654462
rclavicle -3.2661661972542267e-15 -7.287839914561732e-16
rhumerus -24.90486191571127 -12.126183612283922 -77.72355271024752
rradius 27.72915530845394
rwrist 4.9660924171669425
rhand -16.84640081639659 21.246639224470243
rfingers 7.1250199999999975
rthumb 9.383507841398968 -6.557304976800788
58
root 0.6517250164733929 18.122129946327092 30.62378113683407 -2.4170086322040425 -0.045188644630768326 -5.412628645813815
lfemur -20.11800597555969 -2.8775514497451278 -18.464205735841276
ltibia 14.39654026745076
lfoot -4.680703819995734 -5.6941127968716145
ltoes -7.357314195259963
rfemur 7.161040359723062 7.150687778829113 31.386835351821194
rtibia 28.72509443691983
rfoot 5.374589413780695 -3.749784661700071
rtoes 9.51004903966076
lowerback 8.57293698001544 2.7502361250588234 6.610143199318211
upperback -0.05042466800075324 4.344601704932563 1.1048720651103614
thorax -4.349015982073998 2.0026383586032153 -2.980264729751903
lowerneck -16.235642024885195 -3.3821522671964055 -2.3701111718521157
upperneck 22.068826873371915 -4.432445141310859 1.2906834033599484
head 9.890341281063206 -2.070565294811044 0.09699305345090968
lclavicle -3.058906156279983e-15 -5.905474420237972e-16
lhumerus -39.03384935247683 8.761772706437446 81.58076525962555
lradius 25.82247940636553
lwrist 3.381420221052233
lhand -26.87474149334718 23.19337507261103
lfingers 7.1250199999999975
lthumb -0.29919404207345346 53.15958786740987
rclavicle -3.058906156279983e-15 -5.905474420237972e-16
rhumerus -24.96214792941101 -11.792338879096118 -77.91823275808397
rradius 27.317284952286403
rwrist 5.186688394653617
rhand -17.03185666089409 21.233065035390904
rfingers 7.1250199999999975
rthumb 9.204720663424233 -6.796589591519909
